<svg height="496pt" viewBox="0 0 496 496" width="496pt" xmlns="http://www.w3.org/2000/svg"><path d="m488 248c0 132.546875-107.453125 240-240 240s-240-107.453125-240-240 107.453125-240 240-240 240 107.453125 240 240zm0 0" fill="#85d3c1"/><path d="m418.160156 109.839844c3.601563 3.601562 5.839844 8.640625 5.839844 14.160156 0 11.039062-8.960938 20-20 20h-44.320312c-.960938-13.839844-4.480469-26.960938-10-38.960938l2.320312-1.039062h52c4.800781 0 9.28125 1.679688 12.71875 4.558594.480469.402344.960938.800781 1.441406 1.28125zm0 0" fill="#f5f7fa"/><path d="m264 24c0 8.800781-7.199219 16-16 16s-16-7.199219-16-16c0-8.238281 6.320312-15.121094 14.398438-15.921875.5625-.078125 1.042968-.078125 1.601562-.078125s1.039062 0 1.601562.078125c8.078126.800781 14.398438 7.683594 14.398438 15.921875zm0 0" fill="#f5f7fa"/><path d="m251.921875 42.800781c32.71875 23.359375 52.078125 61.039063 52.078125 101.199219h-112c0-40.160156 19.359375-77.839844 52.078125-101.199219l3.921875-2.800781zm0 0" fill="#f9d48a"/><path d="m248 40c30.878906 0 58.878906 12.558594 79.199219 32.800781 9.28125 9.277344 16.878906 20.160157 22.480469 32.238281 5.519531 12 9.039062 25.121094 10 38.960938h-55.679688c0-40.160156-19.359375-77.839844-52.078125-101.199219zm0 0" fill="#ff958a"/><path d="m248 40-3.921875 2.800781c-32.71875 23.359375-52.078125 61.039063-52.078125 101.199219h-55.679688c4.078126-58.078125 52.558594-104 111.679688-104zm0 0" fill="#ff958a"/><path d="m256.238281 487.761719c-2.71875.160156-5.4375.238281-8.238281.238281-8.078125 0-16.078125-.398438-24-1.121094-32.160156-3.277344-62.480469-12.800781-89.679688-27.519531l1.679688-3.359375v-128l-.320312-1.519531 55.359374-11.121094.960938 4.640625v8c0 30.960938 25.039062 56 56 56 15.519531 0 29.441406-6.238281 39.601562-16.398438 10.160157-10.160156 16.398438-24.082031 16.398438-39.601562v-8l.960938-4.640625 55.359374 11.121094-.320312 1.519531v128l1.679688 3.359375c-31.601563 17.039063-67.359376 27.199219-105.441407 28.402344zm0 0" fill="#ff958a"/><g fill="#f5f7fa"><path d="m360 456v-128l.320312-1.519531 15.519532 3.121093c18.71875 3.679688 32.160156 20.160157 32.160156 39.199219v56.960938l.480469.558593c-14.160157 12.878907-29.921875 23.917969-46.800781 33.039063zm0 0"/><path d="m136 328v128l-1.679688 3.359375c-16.878906-9.121094-32.640624-20.160156-46.800781-33.039063l.480469-.558593v-56.960938c0-19.039062 13.441406-35.519531 32.160156-39.199219l15.519532-3.121093zm0 0"/><path d="m208 312v-24l1.199219-2.078125c11.519531 6.476563 24.722656 10.078125 38.800781 10.078125s27.28125-3.601562 38.800781-10.078125l1.199219 2.078125v24l16.960938 3.359375-.960938 4.640625v8c0 15.519531-6.238281 29.441406-16.398438 39.601562-10.160156 10.160157-24.082031 16.398438-39.601562 16.398438-30.960938 0-56-25.039062-56-56v-8l-.960938-4.640625zm0 0"/></g><path d="m360 152v48c0-17.679688-14.320312-32-32-32v-24h31.679688c.242187 2.640625.320312 5.28125.320312 8zm0 0" fill="#f9d48a"/><path d="m328 216v-48c17.679688 0 32 14.320312 32 32s-14.320312 32-32 32l-1.519531-.238281c.960937-5.042969 1.519531-10.320313 1.519531-15.761719zm0 0" fill="#f5f7fa"/><path d="m326.480469 231.761719c-4.71875 23.359375-19.519531 43.039062-39.679688 54.160156-11.519531 6.476563-24.722656 10.078125-38.800781 10.078125s-27.28125-3.601562-38.800781-10.078125c-6.558594-3.601563-12.480469-8.082031-17.757813-13.363281-10.960937-10.957032-18.722656-25.039063-21.921875-40.796875-.960937-5.042969-1.519531-10.320313-1.519531-15.761719v-72h160v72c0 5.441406-.558594 10.71875-1.519531 15.761719zm0 0" fill="#f5f7fa"/><path d="m168 144v24c-17.679688 0-32 14.320312-32 32v-48c0-2.71875.078125-5.359375.320312-8zm0 0" fill="#f9d48a"/><path d="m169.519531 231.761719-1.519531.238281c-17.679688 0-32-14.320312-32-32s14.320312-32 32-32v48c0 5.441406.558594 10.71875 1.519531 15.761719zm0 0" fill="#f5f7fa"/><path d="m216 184c0 4.417969-3.582031 8-8 8s-8-3.582031-8-8 3.582031-8 8-8 8 3.582031 8 8zm0 0"/><path d="m296 184c0 4.417969-3.582031 8-8 8s-8-3.582031-8-8 3.582031-8 8-8 8 3.582031 8 8zm0 0"/><path d="m248 248c-8.824219 0-16-7.175781-16-16h-16c0 17.648438 14.351562 32 32 32s32-14.351562 32-32h-16c0 8.824219-7.175781 16-16 16zm0 0"/><path d="m248 0c-136.742188 0-248 111.257812-248 248 0 136.753906 111.257812 248 248 248s248-111.246094 248-248c0-136.742188-111.257812-248-248-248zm8 24c0 4.40625-3.59375 8-8 8s-8-3.59375-8-8 3.59375-8 8-8 8 3.59375 8 8zm105 88h43c6.617188 0 12 5.382812 12 12s-5.382812 12-12 12h-37.191406c-1.121094-8.304688-3.082032-16.320312-5.808594-24zm-65 209.753906v6.246094c0 26.472656-21.527344 48-48 48s-48-21.527344-48-48v-6.246094l16-3.203125v-20.664062c9.9375 3.898437 20.703125 6.113281 32 6.113281s22.0625-2.214844 32-6.113281v20.664062zm-48-33.753906c-39.695312 0-72-32.304688-72-72v-64h144v64c0 39.695312-32.304688 72-72 72zm-87.664062-65.367188c-9.464844-3.21875-16.335938-12.097656-16.335938-22.632812 0-10.414062 6.710938-19.214844 16-22.527344v38.527344c0 2.238281.167969 4.433594.335938 6.632812zm87.664062-172.730468c27.878906 20.257812 45.144531 51.9375 47.519531 86.097656h-95.039062c2.375-34.160156 19.640625-65.839844 47.519531-86.097656zm-63.753906 86.097656h-38.878906c6.386718-41.039062 36.769531-74.144531 76.359374-84.503906-22.085937 22.625-35.542968 52.648437-37.480468 84.503906zm-24.246094 24.808594c-5.945312 1.214844-11.328125 3.855468-16 7.390625v-16.199219h16zm176 55.191406v-38.527344c9.289062 3.3125 16 12.113282 16 22.527344 0 10.535156-6.871094 19.414062-16.335938 22.632812.167969-2.199218.335938-4.394531.335938-6.632812zm16-47.792969c-4.671875-3.535156-10.054688-6.183593-16-7.390625v-8.816406h16zm-40.246094-32.207031c-1.9375-31.855469-15.394531-61.878906-37.480468-84.503906 39.597656 10.359375 69.984374 43.464844 76.367187 84.503906zm-295.753906 112c0-120.207031 91.894531-219.328125 209.121094-230.863281-.65625 2.191406-1.121094 4.464843-1.121094 6.863281 0 3.609375.855469 7 2.289062 10.070312-55.824218 10.257813-98.289062 59.1875-98.289062 117.929688v48c0 20.441406 15.472656 37.160156 35.289062 39.519531 5.789063 20.839844 19.03125 38.578125 36.710938 50.136719v15.785156l-81.40625 16.277344c-22.363281 4.464844-38.59375 24.265625-38.59375 47.074219v38.960937c-39.609375-41.640625-64-97.890625-64-159.753906zm112 88.160156v110.328125c-11.351562-6.886719-22.023438-14.769531-32-23.441406v-54.253906c0-15.199219 10.816406-28.402344 25.726562-31.378907zm104 143.222656v-71.382812h-19.3125l-18.34375 18.34375 11.3125 11.3125 10.34375-10.34375v50.421875c-25.558594-3.542969-49.792969-11.261719-72-22.453125v-122.320312l40-8v3.039062c0 35.289062 28.710938 64 64 64s64-28.710938 64-64v-3.039062l40 8v122.328124c-21.9375 11.046876-45.832031 18.726563-71.039062 22.328126l20.328124-16.9375c6.816407-5.679688 10.71875-14.023438 10.71875-22.886719-.007812-16.433594-13.367187-29.792969-29.800781-29.792969-18.863281 0-34.207031 15.34375-34.207031 34.207031h16c0-10.039062 8.167969-18.207031 18.207031-18.207031 7.609375 0 13.792969 6.183594 13.792969 13.792969 0 4.109375-1.808594 7.96875-4.960938 10.589843l-37.773437 31.480469c-1.761719.039063-3.496094.136719-5.265625.136719-5.382812 0-10.703125-.246094-16-.617188zm168-56.335937c-9.976562 8.671875-20.648438 16.554687-32 23.441406v-110.328125l6.28125 1.253906c14.902344 2.976563 25.71875 16.171876 25.71875 31.378907zm16-15.304687v-38.957032c0-22.808594-16.230469-42.601562-38.585938-47.066406l-81.414062-16.269531v-15.785157c17.679688-11.558593 30.910156-29.304687 36.710938-50.136718 19.816406-2.367188 35.289062-19.085938 35.289062-39.527344v-48h36c15.441406 0 28-12.558594 28-28s-12.558594-28-28-28h-49.953125c-16.902344-31.871094-47.726563-55.207031-84.335937-61.929688 1.433593-3.070312 2.289062-6.460937 2.289062-10.070312 0-2.398438-.464844-4.671875-1.121094-6.863281 117.226563 11.535156 209.121094 110.65625 209.121094 230.863281 0 61.863281-24.390625 118.113281-64 159.742188zm0 0"/></svg>