<svg height="512" viewBox="0 0 60 60" width="512" xmlns="http://www.w3.org/2000/svg"><g id="Page-1" fill="none" fill-rule="evenodd"><g id="029---Player-2" fill-rule="nonzero"><path id="Shape" d="m18 19c-1.1045695 0-2-.8954305-2-2v-14c0-1.1045695.8954305-2 2-2h4c3.3137085.00000005 5.9999999 2.68629154 5.9999999 6 0 3.3137085-2.6862914 6-5.9999999 6h-2v4c0 1.1045695-.8954305 2-2 2zm2-10h2c1.1045695 0 2-.8954305 2-2s-.8954305-2-2-2h-2z" fill="#ffdc00"/><path id="Shape" d="m43 19h-9c-.8304971.0001978-1.5747017-.5128751-1.8698837-1.2891438s-.079913-1.6541887.5408837-2.2058562l7.61-6.764c.6640238-.59041284.8943586-1.52960921.5788436-2.36025069-.3155149-.83064148-1.1112973-1.38007241-1.9998436-1.38074931h-.86c-1.1045695 0-2 .8954305-2 2s-.8954305 2-2 2-2-.8954305-2-2c.0033074-3.31233757 2.6876624-5.99669262 6-6h.86c2.5490597.00074863 4.8326364 1.57615827 5.7384182 3.95885954.9057817 2.38270126.245424 5.07724496-1.6594182 6.77114046l-3.678 3.27h3.739c1.1045695 0 2 .8954305 2 2s-.8954305 2-2 2z" fill="#ffdc00"/><path id="Shape" d="m42 7.14c-.0003031 1.7540528-.7502961 3.4243429-2.061 4.59l-3.678 3.27h3l3.678-3.27c1.9048422-1.6938955 2.5651999-4.3884392 1.6594182-6.77114046-.9057818-2.38270127-3.1893585-3.95811091-5.7384182-3.95885954h-.86c-.3572625.00169683-.7136663.03516198-1.065.1 2.9269301.52336742 5.059667 3.06665087 5.065 6.04z" fill="#fec108"/><path id="Shape" d="m43 15h-3c1.1045695 0 2 .8954305 2 2s-.8954305 2-2 2h3c1.1045695 0 2-.8954305 2-2s-.8954305-2-2-2z" fill="#fec108"/><path id="Shape" d="m26 34c.0024301 3.1238594-1.3292327 6.1000895-3.66 8.18-.4364071-.1206364-.8872275-.1811944-1.34-.18-.5379167.0026635-1.071724.0938837-1.58.27-.4784688.1484809-.930646.371195-1.34.66-.6925493.5053564-1.2435229 1.180299-1.6 1.96-.4895324.0767548-.9844995.1135429-1.48.11-4.641694-.0055731-8.78141231-2.9213747-10.35-7.29v-.01c-.1522809-.4254317-.27917079-.8595286-.38-1.3-.18192415-.786967-.27252217-1.5922827-.27-2.4 0-6.0751322 4.92486775-11 11-11 6.0751322 0 11 4.9248678 11 11z" fill="#7f8e94"/><path id="Shape" d="m56 34c.0031067.849089-.0976411 1.6953712-.3 2.52-.098164.4422537-.228511.8767438-.39 1.3-.02.05-.03.09-.05.14v.02c-1.6534528 4.225273-5.72274 7.0095221-10.26 7.02-.4920442-.0003131-.983389-.0370804-1.47-.11-.8161735-1.7652136-2.5852368-2.8938213-4.53-2.89-.4495295-.0018757-.8971405.0587032-1.33.18-2.2725981-2.0237457-3.6012169-4.9014483-3.6676022-7.9437899-.0663852-3.0423415 1.1354432-5.9752596 3.3176022-8.0962101.0341348-.0360164.070903-.0694421.11-.1 2.0335714-1.9567562 4.7478977-3.0467894 7.57-3.04 6.0735321.0038613 10.9961387 4.9264679 11 11z" fill="#7f8e94"/><path id="Shape" d="m45 23c-.5020026.0040361-1.0031532.0421235-1.5.114 5.4399324.7488007 9.4943849 5.3947765 9.5 10.886.0031067.849089-.0976411 1.6953712-.3 2.52-.098164.4422537-.228511.8767438-.39 1.3-.02.05-.03.09-.05.14v.02c-1.455928 3.7054944-4.7899785 6.3434077-8.731 6.908.4868913.0736383.9785725.1110742 1.471.112 4.53726-.0104779 8.6065472-2.794727 10.26-7.02v-.02c.02-.05.03-.09.05-.14.161489-.4232562.291836-.8577463.39-1.3.2023589-.8246288.3031067-1.670911.3-2.52-.0038613-6.0735321-4.9264679-10.9961387-11-11z" fill="#545c60"/><path id="Shape" d="m37.67 42.18c-1.8154932.4976603-3.1961715 1.9750248-3.57 3.82h-8.2c-.372585-1.8421517-1.7486355-3.3187003-3.56-3.82 2.2881905-2.0433343 3.6153661-4.9520669 3.6590779-8.0194958s-1.2000411-6.012798-3.4290779-8.1205042h14.86c-.039097.0305579-.0758652.0639836-.11.1-2.182159 2.1209505-3.3839874 5.0538686-3.3176022 8.0962101.0663853 3.0423416 1.3950041 5.9200442 3.6676022 7.9437899z" fill="#607d8b"/><path id="Shape" d="m34 34c-.0026479-2.9613371 1.1952264-5.7972685 3.32-7.86.0341348-.0360164.070903-.0694421.11-.1h-3c-.039097.0305579-.0758652.0639836-.11.1-2.182159 2.1209505-3.3839874 5.0538686-3.3176022 8.0962101.0663853 3.0423416 1.3950041 5.9200442 3.6676022 7.9437899-1.8154932.4976603-3.1961715 1.9750248-3.57 3.82h3c.3738285-1.8449752 1.7545068-3.3223397 3.57-3.82-2.3376526-2.0757671-3.673742-5.0537539-3.67-8.18z" fill="#37474f"/><path id="Shape" d="m26 47c.002929 1.3269782-.5229145 2.6004503-1.4612321 3.5387679s-2.2117897 1.4641611-3.5387679 1.4612321c-.5638252.0029603-1.1233017-.0987627-1.65-.3-2.0030552-.6941556-3.3472756-2.5800768-3.35-4.7-.0024775-.730677.1616832-1.4522999.48-2.11.3564771-.779701.9074507-1.4546436 1.6-1.96.409354-.288805.8615312-.5115191 1.34-.66.508276-.1761163 1.0420833-.2673365 1.58-.27 2.3782842-.0059442 4.4296914 1.668674 4.9 4 .0688868.3288153.1024107.6640549.1 1z" fill="#7f8e94"/><path id="Shape" d="m44 47c0 2.7614237-2.2385763 5-5 5s-5-2.2385763-5-5c-.0024107-.3359451.0311132-.6711847.1-1 .3738285-1.8449752 1.7545068-3.3223397 3.57-3.82.4328595-.1212968.8804705-.1818757 1.33-.18 2.7595972.0044048 4.9955952 2.2404028 5 5z" fill="#7f8e94"/><path id="Shape" d="m43.53 44.89c-.8161735-1.7652136-2.5852368-2.8938213-4.53-2.89-.4495295-.0018757-.8971405.0587032-1.33.18-.055.015-.106.039-.16.056 2.0822578.6480321 3.5008564 2.5752334 3.5008564 4.756s-1.4185986 4.1079679-3.5008564 4.756c1.664403.559372 3.5012101.1736425 4.8-1.008 1.6617497-1.462066 2.1588268-3.8455915 1.22-5.85z" fill="#545c60"/><path id="Shape" d="m17.71 50.75-1.2 2.88c-1.3768164 3.2617396-4.5796165 5.3759032-8.12 5.36-.54431041-.0026394-1.08699904-.0595882-1.62-.17h-.01c-.77259157-.1476341-1.51362858-.4284838-2.19-.83-2.68208486-1.6033487-4.05152333-4.7317727-3.41-7.79l3.11-13.8c.10082921.4404714.2277191.8745683.38 1.3v.01c1.56858769 4.3686253 5.708306 7.2844269 10.35 7.29.4955005.0035429.9904676-.0332452 1.48-.11-.3183168.6577001-.4824775 1.379323-.48 2.11-.0034348 1.4394061.6209863 2.8087505 1.71 3.75z" fill="#607d8b"/><path id="Shape" d="m55.43 57.99c-4.17 2.49-10.31.12-11.94-4.36l-1.18-2.89c1.6617497-1.462066 2.1588268-3.8455915 1.22-5.85.486611.0729196.9779558.1096869 1.47.11 4.53726-.0104779 8.6065472-2.794727 10.26-7.02v-.02c.02-.05.03-.09.05-.14.161489-.4232562.291836-.8577463.39-1.3l3.14 13.68c.6415233 3.0582273-.7279151 6.1866513-3.41 7.79z" fill="#607d8b"/><path id="Shape" d="m58.84 50.2-3.14-13.68c-.098164.4422537-.228511.8767438-.39 1.3-.02.05-.03.09-.05.14v.02c-.3940294.9950943-.9291784 1.9283214-1.589 2.771l2.169 9.449c.6415233 3.0582273-.7279151 6.1866513-3.41 7.79-.7184594.4228179-1.5058483.7156345-2.326.865 1.8215435.3640498 3.7132939.0568091 5.326-.865 2.6820849-1.6033487 4.0515233-4.7317727 3.41-7.79z" fill="#37474f"/><circle id="Oval" cx="45" cy="29" fill="#ffeb3a" r="2"/><circle id="Oval" cx="45" cy="39" fill="#a4c400" r="2"/><circle id="Oval" cx="40" cy="34" fill="#02a9f4" r="2"/><circle id="Oval" cx="50" cy="34" fill="#f44335" r="2"/><path id="Shape" d="m17 29-2 2-2-2c0-1.1045695.8954305-2 2-2s2 .8954305 2 2z" fill="#607d8b"/><path id="Shape" d="m10 32 2 2-2 2c-1.1045695 0-2-.8954305-2-2s.8954305-2 2-2z" fill="#607d8b"/><path id="Shape" d="m13 39 2-2 2 2c0 1.1045695-.8954305 2-2 2s-2-.8954305-2-2z" fill="#607d8b"/><path id="Shape" d="m20 36-2-2 2-2c1.1045695 0 2 .8954305 2 2s-.8954305 2-2 2z" fill="#607d8b"/><g fill="#000"><path id="Shape" d="m56.72 36.491c.1841844-.8175891.2780798-1.6529235.28-2.491-.0071648-6.624447-5.375553-11.9928352-12-12-2.9326151-.0027861-5.762451 1.080132-7.944 3.04h-14.114c-3.5241937-3.1452966-8.5684623-3.9241158-12.8771798-1.9881962-4.30871755 1.9359196-7.07615975 6.2245638-7.0648202 10.9481962.00214425.796188.08625435 1.5900399.251 2.369l-3.068 13.623c-.73278952 3.4777244.82497123 7.036828 3.877 8.858.77481467.4594413 1.62335814.7811976 2.508.951l.051.009c.58302238.1177981 1.17619932.1780872 1.771.18 3.9433201.013782 7.5090757-2.342227 9.043-5.975l.726-1.743c.2668408.1417699.5443522.2624707.83.361.6419339.2454136 1.32376.3698443 2.011.367 3.3123376-.0033074 5.9966926-2.6876624 6-6h6c.0003983 2.1141495 1.1134125 4.0720616 2.9298178 5.1538656s4.0680942 1.127822 5.9271822.1211344l.694 1.7c1.022295 2.571655 3.1258521 4.5621688 5.75 5.441 1.0682526.3830501 2.1941524.5805645 3.329.584 2.5189961.0307743 4.9146971-1.0881534 6.5079034-3.0395586 1.5932063-1.9514051 2.2102139-4.5225301 1.6760966-6.9844414zm-18.6-9.729c1.8485133-1.7778256 4.3153113-2.7681303 6.88-2.762 5.5203344.0060624 9.9939376 4.4796656 10 10 .0024945.7750139-.0898585 1.5474209-.275 2.3-.0877855.3932698-.204093.7796249-.348 1.156l-.042.121c-.0149054.0378971-.0275935.0766292-.038.116-1.5136413 3.808943-5.1983229 6.3085974-9.297 6.307-.28 0-.566-.036-.851-.064-1.2537122-2.144956-3.7121408-3.2803524-6.158-2.844-1.9189308-1.8762383-2.9977273-4.4486381-2.9911356-7.1323896.0065916-2.6837516 1.0980114-5.250821 3.0261356-7.1176104.0337668-.0244722.0658399-.0511998.096-.08zm-23.12-2.762c4.0553223-.0093299 7.7128171 2.4369301 9.2526996 6.1885282 1.5398825 3.751598.6557387 8.062021-2.2366996 10.9044718-.9678157-.1764205-1.9647378-.1010056-2.895.219-.5831136.183512-1.1333223.4586163-1.63.815-.6701433.4918745-1.2329427 1.1152411-1.654 1.832-.263.025-.537.041-.837.041-4.1929118-.0100197-7.93676789-2.6281259-9.385-6.563-.007-.025-.014-.049-.023-.074-.13973673-.3894248-.25627431-.7867879-.349-1.19-.16340765-.7127295-.24493523-1.4417807-.243-2.173.00606237-5.5203344 4.47966557-9.9939376 10-10zm.57 29.286c-1.2243101 2.8731036-4.0570352 4.7273944-7.18 4.7-.4771713-.0021553-.95290989-.0524094-1.42-.15l-.062-.01c-.6431497-.1276293-1.25971522-.3643796-1.823-.7-2.3113595-1.3787246-3.49515599-4.0706674-2.949-6.706l2.386-10.591c2.11958661 3.8005997 6.1263231 6.1603602 10.478 6.171h.093c-.058643.3301822-.08975.6646662-.093 1 .0031927 1.4699782.5478851 2.8872466 1.53 3.981zm5.43-2.286c-.4535179.001903-.9033442-.0815489-1.326-.246-1.6023508-.5508212-2.6770788-2.0596203-2.674-3.754-.0008988-1.2871015.6166949-2.4962458 1.66-3.25.3271804-.2338604.6893326-.4144303 1.073-.535 1.5048823-.5142674 3.1714663-.0881976 4.2448833 1.0852237s1.3497397 2.8712681.7038093 4.3245112c-.6459303 1.4532432-2.0913999 2.3857962-3.6816926 2.3752651zm12.35-6h-6.7c-.4714222-1.3216453-1.389153-2.437422-2.595-3.155 1.8924596-2.1761597 2.9379121-4.9610749 2.945-7.845.0067883-2.4982942-.7773222-4.9346374-2.24-6.96h10.484c-3.2370012 4.4966506-2.9443335 10.6318939.706 14.8-1.2089557.7175505-2.1287609 1.8354676-2.6 3.16zm1.65 2c0-2.209139 1.790861-4 4-4s4 1.790861 4 4-1.790861 4-4 4-4-1.790861-4-4zm19.917 10.132c-1.8227988 1.0134231-4.0028721 1.1601059-5.945.4-2.0751581-.6839101-3.7424915-2.2491395-4.556-4.277l-.931-2.279c1.2171781-1.3500114 1.7427198-3.1864551 1.424-4.976h.091c4.3320434.0071799 8.3290845-2.3295283 10.448-6.108l2.414 10.517c.5535248 2.6398327-.6292926 5.3400302-2.945 6.723z"/><path id="Shape" d="m45 32c1.6568542 0 3-1.3431458 3-3s-1.3431458-3-3-3-3 1.3431458-3 3 1.3431458 3 3 3zm0-4c.5522847 0 1 .4477153 1 1s-.4477153 1-1 1-1-.4477153-1-1 .4477153-1 1-1z"/><path id="Shape" d="m45 36c-1.6568542 0-3 1.3431458-3 3s1.3431458 3 3 3 3-1.3431458 3-3-1.3431458-3-3-3zm0 4c-.5522847 0-1-.4477153-1-1s.4477153-1 1-1 1 .4477153 1 1-.4477153 1-1 1z"/><path id="Shape" d="m40 37c1.6568542 0 3-1.3431458 3-3s-1.3431458-3-3-3-3 1.3431458-3 3 1.3431458 3 3 3zm0-4c.5522847 0 1 .4477153 1 1s-.4477153 1-1 1-1-.4477153-1-1 .4477153-1 1-1z"/><path id="Shape" d="m47 34c0 1.6568542 1.3431458 3 3 3s3-1.3431458 3-3-1.3431458-3-3-3-3 1.3431458-3 3zm3-1c.5522847 0 1 .4477153 1 1s-.4477153 1-1 1-1-.4477153-1-1 .4477153-1 1-1z"/><path id="Shape" d="m14.293 31.707c.3904999.3903819 1.0235001.3903819 1.414 0l2-2c.1875494-.1874927.2929434-.4418052.293-.707 0-1.6568542-1.3431458-3-3-3s-3 1.3431458-3 3c.0000566.2651948.1054506.5195073.293.707zm.707-3.707c.4171213-.0002605.7905905.2584177.937.649l-.937.937-.937-.937c.1464095-.3905823.5198787-.6492605.937-.649z"/><path id="Shape" d="m10 37c.2651948-.0000566.5195073-.1054506.707-.293l2-2c.3903819-.3904999.3903819-1.0235001 0-1.414l-2-2c-.1874927-.1875494-.4418052-.2929434-.707-.293-1.65685425 0-3 1.3431458-3 3s1.34314575 3 3 3zm-.351-3.937.937.937-.937.937c-.39124017-.1458609-.65067064-.5194545-.65067064-.937s.25943047-.7911391.65067064-.937z"/><path id="Shape" d="m15.707 36.293c-.3904999-.3903819-1.0235001-.3903819-1.414 0l-2 2c-.1875494.1874927-.2929434.4418052-.293.707 0 1.6568542 1.3431458 3 3 3s3-1.3431458 3-3c-.0000566-.2651948-.1054506-.5195073-.293-.707zm-.707 3.707c-.4171213.0002605-.7905905-.2584177-.937-.649l.937-.937.937.937c-.1464095.3905823-.5198787.6492605-.937.649z"/><path id="Shape" d="m17.293 34.707 2 2c.1874927.1875494.4418052.2929434.707.293 1.6568542 0 3-1.3431458 3-3s-1.3431458-3-3-3c-.2651948.0000566-.5195073.1054506-.707.293l-2 2c-.3903819.3904999-.3903819 1.0235001 0 1.414zm3.058-1.644c.3912402.1458609.6506706.5194545.6506706.937s-.2594304.7911391-.6506706.937l-.937-.937z"/><path id="Shape" d="m20 10h2c1.6568542-.00000002 3-1.34314577 3-3s-1.3431458-2.99999998-3-3h-2c-.5522847 0-1 .44771525-1 1v4c0 .55228475.4477153 1 1 1zm1-4h1c.5522847 0 1 .44771525 1 1s-.4477153 1-1 1h-1z"/><path id="Shape" d="m21 17v-3h1c3.8659932 0 7-3.1340068 7-7 0-3.86599325-3.1340068-7-7-7h-4c-1.6568542 0-3 1.34314575-3 3v14c0 1.6568542 1.3431458 3 3 3s3-1.3431458 3-3zm-4 0v-14c0-.55228475.4477153-1 1-1h4c2.7614237 0 5 2.23857625 5 5s-2.2385763 5-5 5h-2c-.5522847 0-1 .4477153-1 1v4c0 .5522847-.4477153 1-1 1s-1-.4477153-1-1z"/><path id="Shape" d="m46 7.14c-.0044088-3.94148547-3.1985145-7.13559118-7.14-7.14h-.86c-3.8641657.00440864-6.9955914 3.13583434-7 7 0 1.65685425 1.3431458 3 3 3s3-1.34314575 3-3c0-.55228475.4477153-1 1-1h.86c.4736957-.00029061.8982139.2923823 1.066413.73521041.1681992.44282811.0450279.94352958-.309413 1.25778959l-7.61 6.765c-.9307393.8275144-1.253413 2.1440237-.8108181 3.3081394.442595 1.1641157 1.5584042 1.9337162 2.8038181 1.9338606h9c1.6568542 0 3-1.3431458 3-3s-1.3431458-3-3-3h-1.109l1.709-1.522c1.5251713-1.3552609 2.3984988-3.29768697 2.4-5.338zm-3.725 3.842-3.675 3.27c-.3103101.2753344-.4183972.7136717-.2716634 1.101706.1467338.3880342.5178138.6451761.9326634.646294h3.739c.5522847 0 1 .4477153 1 1s-.4477153 1-1 1h-9c-.4150996.000073-.787085-.2563052-.9347569-.6442494-.147672-.3879442-.0403225-.8267824.2697569-1.1027506l7.61-6.765c.9751003-.86580647 1.3135954-2.24417879.8504734-3.46317813s-1.6314637-2.02489448-2.9354734-2.02482187h-.86c-1.6568542 0-3 1.34314575-3 3 0 .55228475-.4477153 1-1 1s-1-.44771525-1-1c.0033061-2.76005315 2.2399468-4.99669388 5-5h.86c2.1342086-.00021822 4.0465204 1.31843325 4.8049863 3.31332069s.2052724 4.25093597-1.3899863 5.66867931z"/></g></g></g></svg>